HIERARCHY
ROOT Hips
{
 OFFSET 0.000000 0.000000 0.000000
 CHANNELS 6 Xposition Yposition Zposition Yrotation Xrotation Zrotation
 JOINT Chest
 {
  OFFSET 0.000000 10.080317 -0.001081
  CHANNELS 3 Yrotation Xrotation Zrotation
  JOINT Chest2
  {
   OFFSET 0.000000 11.096852 0.001963
   CHANNELS 3 Yrotation Xrotation Zrotation
   JOINT Chest3
   {
    OFFSET 0.000000 10.026525 0.000000
    CHANNELS 3 Yrotation Xrotation Zrotation
    JOINT Chest4
    {
     OFFSET 0.000000 10.026525 0.000000
     CHANNELS 3 Yrotation Xrotation Zrotation
     JOINT Neck
     {
      OFFSET 0.000000 14.108171 0.000000
      CHANNELS 3 Yrotation Xrotation Zrotation
      JOINT Head
      {
       OFFSET 0.000000 9.333493 0.004668
       CHANNELS 3 Yrotation Xrotation Zrotation
       End Site
       {
        OFFSET 0.000000 17.851786 0.002438
       }
      }
     }
     JOINT RightCollar
     {
      OFFSET -3.071622 7.873185 0.000000
      CHANNELS 3 Yrotation Xrotation Zrotation
      JOINT RightShoulder
      {
       OFFSET -14.378659 0.000000 0.000000
       CHANNELS 3 Yrotation Xrotation Zrotation
       JOINT RightElbow
       {
        OFFSET -30.778728 0.000000 0.000000
        CHANNELS 3 Yrotation Xrotation Zrotation
        JOINT RightWrist
        {
         OFFSET -25.164217 0.000000 0.000000
         CHANNELS 3 Yrotation Xrotation Zrotation
         End Site
         {
          OFFSET -18.796788 0.000000 0.000000
         }
        }
       }
      }
     }
     JOINT LeftCollar
     {
      OFFSET 3.071622 7.873185 0.000000
      CHANNELS 3 Yrotation Xrotation Zrotation
      JOINT LeftShoulder
      {
       OFFSET 14.378659 0.000000 0.000000
       CHANNELS 3 Yrotation Xrotation Zrotation
       JOINT LeftElbow
       {
        OFFSET 30.778728 0.000000 0.000000
        CHANNELS 3 Yrotation Xrotation Zrotation
        JOINT LeftWrist
        {
         OFFSET 25.164217 0.000000 0.000000
         CHANNELS 3 Yrotation Xrotation Zrotation
         End Site
         {
          OFFSET 18.796788 0.000000 0.000000
         }
        }
       }
      }
     }
    }
   }
  }
 }
 JOINT RightHip
 {
  OFFSET -8.194923 0.005295 0.000540
  CHANNELS 3 Yrotation Xrotation Zrotation
  JOINT RightKnee
  {
   OFFSET 0.000000 -42.473320 -0.000511
   CHANNELS 3 Yrotation Xrotation Zrotation
   JOINT RightAnkle
   {
    OFFSET 0.000000 -41.474259 -0.000865
    CHANNELS 3 Yrotation Xrotation Zrotation
    JOINT RightToe
    {
     OFFSET 0.000000 -7.354994 16.712725
     CHANNELS 3 Yrotation Xrotation Zrotation
     End Site
     {
      OFFSET 0.000000 -1.553903 6.764158
     }
    }
   }
  }
 }
 JOINT LeftHip
 {
  OFFSET 8.194923 0.005295 0.000540
  CHANNELS 3 Yrotation Xrotation Zrotation
  JOINT LeftKnee
  {
   OFFSET 0.000000 -42.473320 -0.000511
   CHANNELS 3 Yrotation Xrotation Zrotation
   JOINT LeftAnkle
   {
    OFFSET 0.000000 -41.474259 -0.000865
    CHANNELS 3 Yrotation Xrotation Zrotation
    JOINT LeftToe
    {
     OFFSET 0.000000 -7.354994 16.712725
     CHANNELS 3 Yrotation Xrotation Zrotation
     End Site
     {
      OFFSET 0.000000 -1.553903 6.764158
     }
    }
   }
  }
 }
}
MOTION
Frames: 16
Frame Time: 0.016667
-41.881719 84.494427 127.003714 13.003418 -0.470300 -0.788045 10.572723 11.135782 -0.672664 4.115605 4.667530 -0.350950 4.115605 4.667530 -0.350950 3.087681 3.498475 -0.294577 -3.790105 15.616505 8.108174 -9.982651 -6.195945 16.476555 1.367703 -12.861032 -2.672977 -16.357236 -26.880196 -4.700004 88.180931 -5.145532 11.044984 6.561612 -0.300714 -0.505546 -17.937150 -17.375169 1.126179 -29.461195 -54.926795 -56.908924 -105.677816 -19.211240 -41.339680 3.157096 12.963417 13.108236 -28.194303 5.305484 -5.067205 -30.190036 31.343797 -15.768768 -26.561265 -24.088853 17.861611 0.029498 -1.751981 2.194795 -8.884560 -33.725629 5.681714 -24.231696 27.420313 -8.867321 -8.173757 1.123513 -10.046572 0.619256 1.219776 0.063827
-42.372501 84.433709 127.395212 13.263578 -0.695754 -0.467539 11.821045 11.328178 -0.807884 4.483886 4.670497 -0.405417 4.483886 4.670497 -0.405417 3.364155 3.500125 -0.338251 -4.414378 15.601892 8.175576 -11.162371 -6.099760 16.822073 6.569309 -15.746010 -4.764637 -11.016441 -21.675520 -7.906417 86.239247 -3.582787 10.099183 6.548766 -0.457227 -0.388234 -17.270702 -17.661775 0.638495 -28.816469 -54.834281 -57.817139 -106.240556 -20.157467 -41.268958 3.261164 12.954688 13.013554 -29.401147 5.323910 -5.610202 -29.854674 31.895610 -15.649810 -26.650828 -24.042023 17.536638 0.205328 -2.259777 2.159866 -7.898082 -33.667831 5.201576 -24.961795 27.800786 -9.313091 -8.252152 0.797970 -9.660532 0.408809 1.080171 -0.097530
-42.824169 84.348915 127.868005 13.814004 -0.723764 0.057100 12.679352 11.465891 -1.172821 4.755687 4.681491 -0.520985 4.755687 4.681491 -0.520985 3.568779 3.507322 -0.427054 -4.935047 15.472513 8.441927 -12.238312 -6.192104 17.517357 10.937265 -17.196027 -6.079515 -6.552390 -20.715222 -8.782124 85.120983 -2.236508 10.978032 6.540397 -0.591481 -0.370786 -16.291376 -17.887008 -0.016361 -28.535970 -55.028470 -58.695785 -106.770081 -20.663834 -41.475894 3.471865 13.094745 12.781738 -30.303746 5.316410 -6.017698 -29.672797 32.163329 -15.574806 -27.014178 -24.000142 17.374969 0.345323 -2.574853 2.096462 -7.228571 -33.761773 4.638599 -25.282069 28.113585 -9.614627 -8.823395 0.421209 -9.471764 0.454100 1.006806 -0.095031
-43.319579 84.222588 128.385058 14.935438 -0.562034 0.553676 13.161762 11.559225 -1.660324 4.975331 4.717508 -0.615656 4.975331 4.717508 -0.615656 3.734152 3.533404 -0.500003 -5.670731 15.260977 8.918793 -13.799277 -6.339925 18.691858 14.507532 -18.228855 -6.801030 -3.724221 -20.168962 -8.410480 84.075339 -1.637740 10.383051 6.616235 -0.745100 -0.525519 -15.536188 -18.140140 -0.719868 -28.418046 -55.311626 -59.503178 -107.091224 -21.051528 -41.856903 3.682042 13.239275 12.384149 -30.953666 5.501675 -6.050432 -29.696449 32.088846 -15.426634 -27.782505 -23.957748 17.293708 0.471244 -2.703315 2.062680 -7.334046 -34.060382 4.394553 -25.519098 28.345562 -10.087860 -9.441193 0.011915 -9.335473 0.563239 1.017112 -0.042755
-43.801642 84.073140 128.916500 16.436115 -0.500107 0.861635 13.629479 11.773502 -1.889350 5.167832 4.734370 -0.655990 5.167832 4.734370 -0.655990 3.878762 3.545540 -0.531873 -6.725085 15.098283 9.484226 -15.968301 -6.284149 20.130017 17.012907 -19.165584 -7.013735 -1.741144 -19.838322 -7.786336 83.251354 -1.288573 9.394978 6.582524 -0.775571 -0.729333 -15.017505 -18.264296 -1.371100 -28.335710 -55.401484 -60.522122 -107.234427 -21.346728 -42.238673 3.708852 13.260522 12.142019 -31.160492 6.072283 -5.783476 -29.966202 31.862310 -15.215767 -28.842301 -24.187116 17.176524 0.547455 -2.482792 2.112497 -7.529913 -34.448651 4.273349 -26.021370 28.707322 -10.757683 -10.415218 -0.437978 -9.261242 0.881909 1.062272 0.128144
-44.273424 83.893397 129.495198 18.484307 -0.410996 0.666926 13.757037 11.751556 -1.684962 5.358516 4.720472 -0.659073 5.358516 4.720472 -0.659073 4.021716 3.534906 -0.535547 -7.850750 15.027668 10.055896 -18.245414 -6.004443 21.577775 18.197798 -19.472839 -6.684936 -0.467070 -20.716757 -7.174280 82.615743 -0.896704 9.588240 6.571791 -0.791386 -0.809613 -14.834554 -18.221284 -1.725362 -28.152435 -55.257089 -61.366921 -107.159758 -21.634251 -42.504217 3.510025 13.199478 12.188987 -31.345999 6.797654 -5.047483 -30.319455 31.798259 -15.074803 -29.829076 -24.568360 17.029530 0.432093 -2.134808 2.178442 -8.204744 -35.011342 4.543494 -26.732341 29.337639 -11.575843 -11.349111 -0.992863 -8.988862 1.006792 1.216020 0.242390
-44.746031 83.730112 130.121104 21.120143 0.023276 0.071310 13.310283 11.285188 -1.210348 5.530063 4.723033 -0.638228 5.530063 4.723033 -0.638228 4.150142 3.536851 -0.521275 -8.859384 14.897184 10.529080 -20.283080 -5.853449 22.810373 18.487077 -19.550921 -6.284681 0.026823 -21.036164 -6.625754 82.045375 -0.628443 9.852321 6.568442 -0.831227 -0.822228 -14.941859 -18.165376 -1.810815 -28.182874 -54.994375 -61.528125 -107.041822 -21.861160 -42.550610 3.431021 13.165770 12.255740 -31.882977 7.144293 -3.926750 -30.592661 32.111393 -15.149191 -30.454917 -25.206288 16.885073 0.109655 -1.603438 2.215096 -9.776285 -35.927860 5.196629 -27.359091 30.192740 -12.327687 -11.784233 -1.487192 -8.438199 0.601697 1.373678 0.146654
-45.061106 83.594575 130.752153 23.243764 0.371469 -0.305161 13.016131 10.987944 -0.965012 5.655462 4.757957 -0.626487 5.655462 4.757957 -0.626487 4.244047 3.563040 -0.513768 -9.581165 14.666024 10.895926 -21.783965 -5.968294 23.775841 18.211482 -19.597439 -5.908965 0.057272 -21.174511 -6.255238 81.434597 -0.217288 10.438801 6.666865 -0.862018 -0.837425 -14.993957 -18.269077 -1.747050 -28.086836 -54.783216 -61.269154 -106.951853 -22.048465 -42.597178 3.509631 13.192276 12.112708 -32.193371 7.152882 -3.256365 -30.623203 32.840728 -15.440806 -30.757162 -25.807349 16.743278 -0.078113 -1.197134 2.280639 -10.748891 -36.738718 5.462163 -28.023288 31.085530 -13.077241 -12.120344 -1.707286 -7.914179 0.277970 1.264477 0.133953
-45.200787 83.478831 131.313577 24.761733 0.605907 -0.474319 12.801779 10.974529 -0.961621 5.687077 4.822035 -0.644703 5.687077 4.822035 -0.644703 4.267888 3.610906 -0.528263 -9.958650 14.385143 11.165757 -22.637928 -6.287417 24.467062 17.912348 -19.890081 -5.552607 -0.142816 -21.295557 -5.982454 80.966165 0.278114 10.959639 6.648159 -0.834676 -0.882934 -14.792411 -18.619315 -1.516549 -27.803868 -54.559179 -60.761884 -106.959508 -22.343339 -42.613652 3.632674 13.300360 11.946810 -32.406234 7.059053 -3.030022 -30.334316 33.667993 -15.784997 -30.679672 -26.098674 16.610489 -0.155225 -1.083987 2.287958 -11.288425 -37.459037 5.549348 -28.562522 31.983215 -13.980967 -12.437351 -1.937155 -7.374590 0.134917 1.205334 0.218605
-45.217396 83.379148 131.727213 25.858507 0.912024 -0.569196 12.597144 10.882070 -1.112065 5.706602 4.854954 -0.675594 5.706602 4.854954 -0.675594 4.282769 3.635292 -0.551881 -10.158556 14.186441 11.385985 -23.129959 -6.520436 24.990072 17.231240 -20.177725 -4.963803 -0.390978 -21.606839 -5.696261 80.592290 0.450475 11.141812 6.618379 -0.873363 -0.962754 -14.853072 -18.972947 -1.198080 -27.044468 -54.164935 -60.242497 -106.847203 -22.808715 -42.704028 3.645276 13.347541 11.953870 -32.548484 6.868050 -2.945468 -30.014298 34.418992 -16.056568 -30.134904 -26.276567 16.444021 -0.153194 -1.101063 2.153815 -11.767354 -38.308393 5.652964 -28.695104 33.002112 -14.806898 -12.752202 -2.080997 -6.798670 0.017322 1.111240 0.287986
-45.137080 83.327677 132.049663 26.375544 1.112749 -0.729695 12.486565 10.779801 -1.186891 5.691851 4.840953 -0.685153 5.691851 4.840953 -0.685153 4.271789 3.624716 -0.558799 -10.155219 14.072312 11.502676 -23.193442 -6.692072 25.235184 16.445980 -20.378960 -4.296232 -0.538013 -22.255052 -5.446922 80.398410 0.371281 11.161532 6.638283 -0.936371 -1.142324 -14.837308 -19.177343 -0.923878 -26.012460 -53.675903 -60.107794 -106.644860 -23.223356 -42.783288 3.634841 13.314864 12.144366 -32.407347 6.839945 -2.926420 -29.753550 34.970334 -16.195003 -29.235329 -26.224196 16.279051 -0.131269 -1.277986 1.851711 -11.646274 -38.951795 5.654773 -29.096256 33.887226 -15.598433 -12.889756 -2.180732 -6.288247 -0.037916 0.984084 0.359735
-44.956874 83.348856 132.278063 26.353489 1.218553 -0.959754 12.370516 10.608903 -1.173260 5.642073 4.784915 -0.683004 5.642073 4.784915 -0.683004 4.234455 3.582753 -0.556278 -10.064647 14.021615 11.538431 -23.053261 -6.800369 25.285933 15.778360 -20.433715 -3.603263 -0.617265 -23.046902 -5.246535 80.494825 0.113419 10.968688 6.660957 -0.989823 -1.405617 -14.723338 -19.178182 -0.689694 -24.640754 -53.209403 -60.392536 -106.482010 -23.564579 -42.863321 3.651306 13.257957 12.408941 -32.131103 6.983173 -2.933548 -29.540433 35.215238 -16.213987 -28.134402 -25.997967 16.195683 -0.118648 -1.472095 1.386476 -11.364462 -39.383960 5.721315 -29.460662 34.675326 -16.245147 -12.829976 -2.238711 -5.907986 -0.031828 0.804955 0.442160
-44.679753 83.456622 132.432022 25.735261 1.206231 -1.222611 12.248604 10.501540 -1.061713 5.547698 4.730729 -0.668414 5.547698 4.730729 -0.668414 4.163595 3.542334 -0.544110 -9.847267 13.953607 11.468007 -22.651274 -7.010126 25.105065 15.379278 -20.432658 -3.088155 -0.560840 -23.853955 -4.978302 80.798059 -0.181299 10.519984 6.684483 -1.035566 -1.742503 -14.580967 -19.132526 -0.560168 -23.185055 -52.922400 -60.863198 -106.385823 -23.777883 -42.924711 3.651859 13.257398 12.823301 -31.655328 7.257673 -2.968270 -29.324706 35.174515 -16.120545 -26.982866 -25.695371 16.178247 -0.121980 -1.606255 0.826477 -11.074858 -39.530261 5.948397 -29.556772 35.326912 -16.713115 -12.609201 -2.214735 -5.621064 0.008817 0.540430 0.512454
-44.332127 83.353372 132.461412 24.745271 1.262521 -1.265374 11.941405 10.294476 -1.153717 5.437633 4.669504 -0.656636 5.437633 4.669504 -0.656636 4.080995 3.496622 -0.533884 -9.588791 13.896640 11.352086 -22.155222 -7.224702 24.822961 15.053879 -20.351752 -2.670582 -0.335940 -24.761404 -4.493754 81.396069 -0.347397 10.014087 6.539536 -0.998705 -1.904455 -14.510613 -19.034975 -0.519681 -21.962565 -52.811527 -61.156120 -106.253277 -23.881275 -42.886193 3.559005 13.247754 13.528881 -31.258324 7.297854 -3.166353 -28.986261 34.865666 -15.912664 -25.771021 -24.910913 16.078347 -0.146398 -2.066661 0.277732 -10.853185 -39.651135 6.098579 -29.506049 35.845565 -17.058651 -12.079496 -2.707068 -5.454464 0.119283 0.775360 0.561036
-44.223395 83.314853 132.494058 23.659721 1.387075 -1.604016 11.226309 9.894791 -0.943802 5.285674 4.603577 -0.644800 5.285674 4.603577 -0.644800 3.966990 3.447419 -0.523278 -9.276977 13.895170 11.178249 -21.525663 -7.369649 24.400114 14.925902 -20.203157 -2.470024 -0.045765 -25.804342 -3.544356 82.420220 -0.348571 9.520718 6.194787 -0.868921 -1.931480 -14.453835 -18.941034 -0.555124 -20.963840 -52.827672 -61.292248 -106.080827 -23.802038 -42.632748 3.515096 13.157454 14.208366 -31.176811 7.332495 -3.118033 -28.507288 34.389794 -15.753831 -25.131118 -24.468532 16.050768 0.149468 -1.954827 -0.032392 -11.314254 -39.624733 6.773822 -29.336304 36.235531 -17.193311 -10.744626 -3.041761 -5.187528 -0.321076 0.872715 0.297249
-43.934792 83.363759 132.397649 21.775811 1.192242 -1.870816 10.851047 9.729380 -0.771238 5.104223 4.521160 -0.631017 5.104223 4.521160 -0.631017 3.830858 3.385887 -0.510890 -8.878540 13.986600 10.918738 -20.682148 -7.391909 23.764498 14.780760 -19.997021 -2.307040 0.549815 -26.971348 -2.205321 83.611913 -0.259380 9.062928 5.805171 -0.623168 -1.933290 -14.441581 -18.820455 -0.574215 -19.934483 -52.999211 -61.381530 -105.918053 -23.637017 -42.253494 3.456204 13.119655 14.709744 -30.641664 7.530840 -3.265844 -27.877969 33.806748 -15.590848 -24.524238 -24.221606 15.960715 0.346429 -1.703054 -0.268986 -11.371316 -39.174804 7.336742 -28.972109 36.458526 -17.098385 -9.654541 -3.152049 -5.158009 -0.242936 0.776260 0.168373
